<?xml version="1.0" encoding="utf-8" standalone="no"?>
<!DOCTYPE svg PUBLIC "-//W3C//DTD SVG 1.1//EN"
  "http://www.w3.org/Graphics/SVG/1.1/DTD/svg11.dtd">
<svg xmlns:xlink="http://www.w3.org/1999/xlink" width="411.285625pt" height="344.461687pt" viewBox="0 0 411.285625 344.461687" xmlns="http://www.w3.org/2000/svg" version="1.1">
 <metadata>
  <rdf:RDF xmlns:dc="http://purl.org/dc/elements/1.1/" xmlns:cc="http://creativecommons.org/ns#" xmlns:rdf="http://www.w3.org/1999/02/22-rdf-syntax-ns#">
   <cc:Work>
    <dc:type rdf:resource="http://purl.org/dc/dcmitype/StillImage"/>
    <dc:date>2024-06-10T13:49:35.493071</dc:date>
    <dc:format>image/svg+xml</dc:format>
    <dc:creator>
     <cc:Agent>
      <dc:title>Matplotlib v3.8.3, https://matplotlib.org/</dc:title>
     </cc:Agent>
    </dc:creator>
   </cc:Work>
  </rdf:RDF>
 </metadata>
 <defs>
  <style type="text/css">*{stroke-linejoin: round; stroke-linecap: butt}</style>
 </defs>
 <g id="figure_1">
  <g id="patch_1">
   <path d="M 0 344.461687 
L 411.285625 344.461687 
L 411.285625 0 
L 0 0 
z
" style="fill: #ffffff"/>
  </g>
  <g id="axes_1">
   <g id="patch_2">
    <path d="M 46.965625 273.312 
L 404.085625 273.312 
L 404.085625 7.2 
L 46.965625 7.2 
z
" style="fill: #ffffff"/>
   </g>
   <g id="PathCollection_1">
    <defs>
     <path id="m704a86ed3f" d="M 0 3 
C 0.795609 3 1.55874 2.683901 2.12132 2.12132 
C 2.683901 1.55874 3 0.795609 3 0 
C 3 -0.795609 2.683901 -1.55874 2.12132 -2.12132 
C 1.55874 -2.683901 0.795609 -3 0 -3 
C -0.795609 -3 -1.55874 -2.683901 -2.12132 -2.12132 
C -2.683901 -1.55874 -3 -0.795609 -3 0 
C -3 0.795609 -2.683901 1.55874 -2.12132 2.12132 
C -1.55874 2.683901 -0.795609 3 0 3 
z
" style="stroke: #ff7300"/>
    </defs>
    <g clip-path="url(#pbf34bbe685)">
     <use xlink:href="#m704a86ed3f" x="215.785989" y="19.296" style="fill: #ff7300; stroke: #ff7300"/>
     <use xlink:href="#m704a86ed3f" x="241.758352" y="19.296" style="fill: #ff7300; stroke: #ff7300"/>
     <use xlink:href="#m704a86ed3f" x="183.320534" y="125.7408" style="fill: #ff7300; stroke: #ff7300"/>
     <use xlink:href="#m704a86ed3f" x="326.168534" y="43.488" style="fill: #ff7300; stroke: #ff7300"/>
     <use xlink:href="#m704a86ed3f" x="365.12708" y="33.8112" style="fill: #ff7300; stroke: #ff7300"/>
     <use xlink:href="#m704a86ed3f" x="241.758352" y="106.3872" style="fill: #ff7300; stroke: #ff7300"/>
     <use xlink:href="#m704a86ed3f" x="63.198352" y="258.7968" style="fill: #ff7300; stroke: #ff7300"/>
    </g>
   </g>
   <g id="PathCollection_2">
    <defs>
     <path id="m4fed7e44c4" d="M 0 3 
C 0.795609 3 1.55874 2.683901 2.12132 2.12132 
C 2.683901 1.55874 3 0.795609 3 0 
C 3 -0.795609 2.683901 -1.55874 2.12132 -2.12132 
C 1.55874 -2.683901 0.795609 -3 0 -3 
C -0.795609 -3 -1.55874 -2.683901 -2.12132 -2.12132 
C -2.683901 -1.55874 -3 -0.795609 -3 0 
C -3 0.795609 -2.683901 1.55874 -2.12132 2.12132 
C -1.55874 2.683901 -0.795609 3 0 3 
z
" style="stroke: #0077ff"/>
    </defs>
    <g clip-path="url(#pbf34bbe685)">
     <use xlink:href="#m4fed7e44c4" x="183.320534" y="237.024" style="fill: #0077ff; stroke: #0077ff"/>
     <use xlink:href="#m4fed7e44c4" x="241.758352" y="222.5088" style="fill: #0077ff; stroke: #0077ff"/>
     <use xlink:href="#m4fed7e44c4" x="387.852898" y="67.68" style="fill: #0077ff; stroke: #0077ff"/>
     <use xlink:href="#m4fed7e44c4" x="387.852898" y="62.8416" style="fill: #0077ff; stroke: #0077ff"/>
     <use xlink:href="#m4fed7e44c4" x="384.606352" y="258.7968" style="fill: #0077ff; stroke: #0077ff"/>
     <use xlink:href="#m4fed7e44c4" x="173.580898" y="244.2816" style="fill: #0077ff; stroke: #0077ff"/>
     <use xlink:href="#m4fed7e44c4" x="339.154716" y="195.8976" style="fill: #0077ff; stroke: #0077ff"/>
     <use xlink:href="#m4fed7e44c4" x="348.894352" y="251.5392" style="fill: #0077ff; stroke: #0077ff"/>
     <use xlink:href="#m4fed7e44c4" x="387.852898" y="21.7152" style="fill: #0077ff; stroke: #0077ff"/>
    </g>
   </g>
   <g id="PathCollection_3">
    <defs>
     <path id="m175b2036c0" d="M 0 3 
C 0.795609 3 1.55874 2.683901 2.12132 2.12132 
C 2.683901 1.55874 3 0.795609 3 0 
C 3 -0.795609 2.683901 -1.55874 2.12132 -2.12132 
C 1.55874 -2.683901 0.795609 -3 0 -3 
C -0.795609 -3 -1.55874 -2.683901 -2.12132 -2.12132 
C -2.683901 -1.55874 -3 -0.795609 -3 0 
C -3 0.795609 -2.683901 1.55874 -2.12132 2.12132 
C -1.55874 2.683901 -0.795609 3 0 3 
z
" style="stroke: #000000"/>
    </defs>
    <g clip-path="url(#pbf34bbe685)">
     <use xlink:href="#m175b2036c0" x="387.852898" y="19.296" style="stroke: #000000"/>
     <use xlink:href="#m175b2036c0" x="387.852898" y="19.296" style="stroke: #000000"/>
     <use xlink:href="#m175b2036c0" x="387.852898" y="19.296" style="stroke: #000000"/>
     <use xlink:href="#m175b2036c0" x="387.852898" y="19.296" style="stroke: #000000"/>
     <use xlink:href="#m175b2036c0" x="387.852898" y="19.296" style="stroke: #000000"/>
     <use xlink:href="#m175b2036c0" x="387.852898" y="19.296" style="stroke: #000000"/>
     <use xlink:href="#m175b2036c0" x="387.852898" y="19.296" style="stroke: #000000"/>
     <use xlink:href="#m175b2036c0" x="387.852898" y="19.296" style="stroke: #000000"/>
     <use xlink:href="#m175b2036c0" x="387.852898" y="19.296" style="stroke: #000000"/>
     <use xlink:href="#m175b2036c0" x="387.852898" y="19.296" style="stroke: #000000"/>
     <use xlink:href="#m175b2036c0" x="387.852898" y="19.296" style="stroke: #000000"/>
     <use xlink:href="#m175b2036c0" x="387.852898" y="19.296" style="stroke: #000000"/>
     <use xlink:href="#m175b2036c0" x="387.852898" y="19.296" style="stroke: #000000"/>
     <use xlink:href="#m175b2036c0" x="387.852898" y="19.296" style="stroke: #000000"/>
     <use xlink:href="#m175b2036c0" x="387.852898" y="19.296" style="stroke: #000000"/>
     <use xlink:href="#m175b2036c0" x="387.852898" y="19.296" style="stroke: #000000"/>
     <use xlink:href="#m175b2036c0" x="387.852898" y="19.296" style="stroke: #000000"/>
     <use xlink:href="#m175b2036c0" x="387.852898" y="19.296" style="stroke: #000000"/>
     <use xlink:href="#m175b2036c0" x="387.852898" y="19.296" style="stroke: #000000"/>
     <use xlink:href="#m175b2036c0" x="387.852898" y="19.296" style="stroke: #000000"/>
     <use xlink:href="#m175b2036c0" x="387.852898" y="19.296" style="stroke: #000000"/>
     <use xlink:href="#m175b2036c0" x="387.852898" y="19.296" style="stroke: #000000"/>
     <use xlink:href="#m175b2036c0" x="387.852898" y="19.296" style="stroke: #000000"/>
     <use xlink:href="#m175b2036c0" x="355.387443" y="43.488" style="stroke: #000000"/>
     <use xlink:href="#m175b2036c0" x="387.852898" y="19.296" style="stroke: #000000"/>
     <use xlink:href="#m175b2036c0" x="387.852898" y="19.296" style="stroke: #000000"/>
     <use xlink:href="#m175b2036c0" x="387.852898" y="19.296" style="stroke: #000000"/>
     <use xlink:href="#m175b2036c0" x="387.852898" y="19.296" style="stroke: #000000"/>
     <use xlink:href="#m175b2036c0" x="387.852898" y="19.296" style="stroke: #000000"/>
     <use xlink:href="#m175b2036c0" x="387.852898" y="19.296" style="stroke: #000000"/>
     <use xlink:href="#m175b2036c0" x="387.852898" y="19.296" style="stroke: #000000"/>
     <use xlink:href="#m175b2036c0" x="387.852898" y="19.296" style="stroke: #000000"/>
     <use xlink:href="#m175b2036c0" x="387.852898" y="19.296" style="stroke: #000000"/>
     <use xlink:href="#m175b2036c0" x="387.852898" y="19.296" style="stroke: #000000"/>
     <use xlink:href="#m175b2036c0" x="387.852898" y="19.296" style="stroke: #000000"/>
     <use xlink:href="#m175b2036c0" x="342.401261" y="53.1648" style="stroke: #000000"/>
     <use xlink:href="#m175b2036c0" x="387.852898" y="19.296" style="stroke: #000000"/>
     <use xlink:href="#m175b2036c0" x="387.852898" y="19.296" style="stroke: #000000"/>
     <use xlink:href="#m175b2036c0" x="387.852898" y="19.296" style="stroke: #000000"/>
     <use xlink:href="#m175b2036c0" x="387.852898" y="19.296" style="stroke: #000000"/>
     <use xlink:href="#m175b2036c0" x="387.852898" y="19.296" style="stroke: #000000"/>
     <use xlink:href="#m175b2036c0" x="387.852898" y="19.296" style="stroke: #000000"/>
     <use xlink:href="#m175b2036c0" x="387.852898" y="19.296" style="stroke: #000000"/>
     <use xlink:href="#m175b2036c0" x="387.852898" y="19.296" style="stroke: #000000"/>
     <use xlink:href="#m175b2036c0" x="387.852898" y="19.296" style="stroke: #000000"/>
     <use xlink:href="#m175b2036c0" x="387.852898" y="19.296" style="stroke: #000000"/>
     <use xlink:href="#m175b2036c0" x="387.852898" y="19.296" style="stroke: #000000"/>
     <use xlink:href="#m175b2036c0" x="387.852898" y="19.296" style="stroke: #000000"/>
     <use xlink:href="#m175b2036c0" x="387.852898" y="19.296" style="stroke: #000000"/>
     <use xlink:href="#m175b2036c0" x="387.852898" y="19.296" style="stroke: #000000"/>
     <use xlink:href="#m175b2036c0" x="387.852898" y="19.296" style="stroke: #000000"/>
     <use xlink:href="#m175b2036c0" x="387.852898" y="19.296" style="stroke: #000000"/>
     <use xlink:href="#m175b2036c0" x="387.852898" y="19.296" style="stroke: #000000"/>
     <use xlink:href="#m175b2036c0" x="387.852898" y="19.296" style="stroke: #000000"/>
     <use xlink:href="#m175b2036c0" x="387.852898" y="19.296" style="stroke: #000000"/>
     <use xlink:href="#m175b2036c0" x="387.852898" y="19.296" style="stroke: #000000"/>
     <use xlink:href="#m175b2036c0" x="387.852898" y="19.296" style="stroke: #000000"/>
     <use xlink:href="#m175b2036c0" x="387.852898" y="19.296" style="stroke: #000000"/>
     <use xlink:href="#m175b2036c0" x="387.852898" y="19.296" style="stroke: #000000"/>
     <use xlink:href="#m175b2036c0" x="387.852898" y="19.296" style="stroke: #000000"/>
     <use xlink:href="#m175b2036c0" x="387.852898" y="19.296" style="stroke: #000000"/>
     <use xlink:href="#m175b2036c0" x="387.852898" y="19.296" style="stroke: #000000"/>
     <use xlink:href="#m175b2036c0" x="387.852898" y="19.296" style="stroke: #000000"/>
     <use xlink:href="#m175b2036c0" x="387.852898" y="19.296" style="stroke: #000000"/>
     <use xlink:href="#m175b2036c0" x="387.852898" y="19.296" style="stroke: #000000"/>
     <use xlink:href="#m175b2036c0" x="387.852898" y="19.296" style="stroke: #000000"/>
     <use xlink:href="#m175b2036c0" x="296.949625" y="87.0336" style="stroke: #000000"/>
     <use xlink:href="#m175b2036c0" x="387.852898" y="19.296" style="stroke: #000000"/>
     <use xlink:href="#m175b2036c0" x="387.852898" y="19.296" style="stroke: #000000"/>
     <use xlink:href="#m175b2036c0" x="261.237625" y="113.6448" style="stroke: #000000"/>
     <use xlink:href="#m175b2036c0" x="387.852898" y="19.296" style="stroke: #000000"/>
     <use xlink:href="#m175b2036c0" x="387.852898" y="19.296" style="stroke: #000000"/>
     <use xlink:href="#m175b2036c0" x="387.852898" y="19.296" style="stroke: #000000"/>
     <use xlink:href="#m175b2036c0" x="387.852898" y="19.296" style="stroke: #000000"/>
     <use xlink:href="#m175b2036c0" x="387.852898" y="19.296" style="stroke: #000000"/>
     <use xlink:href="#m175b2036c0" x="387.852898" y="19.296" style="stroke: #000000"/>
     <use xlink:href="#m175b2036c0" x="387.852898" y="19.296" style="stroke: #000000"/>
     <use xlink:href="#m175b2036c0" x="387.852898" y="19.296" style="stroke: #000000"/>
     <use xlink:href="#m175b2036c0" x="387.852898" y="19.296" style="stroke: #000000"/>
     <use xlink:href="#m175b2036c0" x="387.852898" y="19.296" style="stroke: #000000"/>
     <use xlink:href="#m175b2036c0" x="387.852898" y="19.296" style="stroke: #000000"/>
     <use xlink:href="#m175b2036c0" x="387.852898" y="19.296" style="stroke: #000000"/>
     <use xlink:href="#m175b2036c0" x="387.852898" y="19.296" style="stroke: #000000"/>
     <use xlink:href="#m175b2036c0" x="387.852898" y="19.296" style="stroke: #000000"/>
     <use xlink:href="#m175b2036c0" x="342.401261" y="53.1648" style="stroke: #000000"/>
     <use xlink:href="#m175b2036c0" x="387.852898" y="19.296" style="stroke: #000000"/>
     <use xlink:href="#m175b2036c0" x="387.852898" y="19.296" style="stroke: #000000"/>
     <use xlink:href="#m175b2036c0" x="387.852898" y="19.296" style="stroke: #000000"/>
     <use xlink:href="#m175b2036c0" x="387.852898" y="19.296" style="stroke: #000000"/>
     <use xlink:href="#m175b2036c0" x="387.852898" y="19.296" style="stroke: #000000"/>
     <use xlink:href="#m175b2036c0" x="387.852898" y="19.296" style="stroke: #000000"/>
     <use xlink:href="#m175b2036c0" x="387.852898" y="19.296" style="stroke: #000000"/>
     <use xlink:href="#m175b2036c0" x="387.852898" y="19.296" style="stroke: #000000"/>
     <use xlink:href="#m175b2036c0" x="387.852898" y="19.296" style="stroke: #000000"/>
     <use xlink:href="#m175b2036c0" x="387.852898" y="19.296" style="stroke: #000000"/>
     <use xlink:href="#m175b2036c0" x="387.852898" y="19.296" style="stroke: #000000"/>
     <use xlink:href="#m175b2036c0" x="387.852898" y="19.296" style="stroke: #000000"/>
     <use xlink:href="#m175b2036c0" x="387.852898" y="19.296" style="stroke: #000000"/>
     <use xlink:href="#m175b2036c0" x="387.852898" y="19.296" style="stroke: #000000"/>
     <use xlink:href="#m175b2036c0" x="387.852898" y="19.296" style="stroke: #000000"/>
     <use xlink:href="#m175b2036c0" x="387.852898" y="19.296" style="stroke: #000000"/>
     <use xlink:href="#m175b2036c0" x="387.852898" y="19.296" style="stroke: #000000"/>
     <use xlink:href="#m175b2036c0" x="387.852898" y="19.296" style="stroke: #000000"/>
     <use xlink:href="#m175b2036c0" x="387.852898" y="19.296" style="stroke: #000000"/>
     <use xlink:href="#m175b2036c0" x="358.633989" y="41.0688" style="stroke: #000000"/>
     <use xlink:href="#m175b2036c0" x="387.852898" y="19.296" style="stroke: #000000"/>
     <use xlink:href="#m175b2036c0" x="387.852898" y="19.296" style="stroke: #000000"/>
     <use xlink:href="#m175b2036c0" x="387.852898" y="19.296" style="stroke: #000000"/>
     <use xlink:href="#m175b2036c0" x="387.852898" y="19.296" style="stroke: #000000"/>
     <use xlink:href="#m175b2036c0" x="387.852898" y="19.296" style="stroke: #000000"/>
     <use xlink:href="#m175b2036c0" x="111.896534" y="224.928" style="stroke: #000000"/>
     <use xlink:href="#m175b2036c0" x="387.852898" y="19.296" style="stroke: #000000"/>
     <use xlink:href="#m175b2036c0" x="131.375807" y="210.4128" style="stroke: #000000"/>
    </g>
   </g>
   <g id="matplotlib.axis_1">
    <g id="xtick_1">
     <g id="line2d_1">
      <defs>
       <path id="m1920b83259" d="M 0 0 
L 0 3.5 
" style="stroke: #000000; stroke-width: 0.8"/>
      </defs>
      <g>
       <use xlink:href="#m1920b83259" x="63.198352" y="273.312" style="stroke: #000000; stroke-width: 0.8"/>
      </g>
     </g>
     <g id="text_1">
      <!-- 0 -->
      <g transform="translate(60.017102 287.910437) scale(0.1 -0.1)">
       <defs>
        <path id="DejaVuSans-30" d="M 2034 4250 
Q 1547 4250 1301 3770 
Q 1056 3291 1056 2328 
Q 1056 1369 1301 889 
Q 1547 409 2034 409 
Q 2525 409 2770 889 
Q 3016 1369 3016 2328 
Q 3016 3291 2770 3770 
Q 2525 4250 2034 4250 
z
M 2034 4750 
Q 2819 4750 3233 4129 
Q 3647 3509 3647 2328 
Q 3647 1150 3233 529 
Q 2819 -91 2034 -91 
Q 1250 -91 836 529 
Q 422 1150 422 2328 
Q 422 3509 836 4129 
Q 1250 4750 2034 4750 
z
" transform="scale(0.015625)"/>
       </defs>
       <use xlink:href="#DejaVuSans-30"/>
      </g>
     </g>
    </g>
    <g id="xtick_2">
     <g id="line2d_2">
      <g>
       <use xlink:href="#m1920b83259" x="128.129261" y="273.312" style="stroke: #000000; stroke-width: 0.8"/>
      </g>
     </g>
     <g id="text_2">
      <!-- 20 -->
      <g transform="translate(121.766761 287.910437) scale(0.1 -0.1)">
       <defs>
        <path id="DejaVuSans-32" d="M 1228 531 
L 3431 531 
L 3431 0 
L 469 0 
L 469 531 
Q 828 903 1448 1529 
Q 2069 2156 2228 2338 
Q 2531 2678 2651 2914 
Q 2772 3150 2772 3378 
Q 2772 3750 2511 3984 
Q 2250 4219 1831 4219 
Q 1534 4219 1204 4116 
Q 875 4013 500 3803 
L 500 4441 
Q 881 4594 1212 4672 
Q 1544 4750 1819 4750 
Q 2544 4750 2975 4387 
Q 3406 4025 3406 3419 
Q 3406 3131 3298 2873 
Q 3191 2616 2906 2266 
Q 2828 2175 2409 1742 
Q 1991 1309 1228 531 
z
" transform="scale(0.015625)"/>
       </defs>
       <use xlink:href="#DejaVuSans-32"/>
       <use xlink:href="#DejaVuSans-30" x="63.623047"/>
      </g>
     </g>
    </g>
    <g id="xtick_3">
     <g id="line2d_3">
      <g>
       <use xlink:href="#m1920b83259" x="193.06017" y="273.312" style="stroke: #000000; stroke-width: 0.8"/>
      </g>
     </g>
     <g id="text_3">
      <!-- 40 -->
      <g transform="translate(186.69767 287.910437) scale(0.1 -0.1)">
       <defs>
        <path id="DejaVuSans-34" d="M 2419 4116 
L 825 1625 
L 2419 1625 
L 2419 4116 
z
M 2253 4666 
L 3047 4666 
L 3047 1625 
L 3713 1625 
L 3713 1100 
L 3047 1100 
L 3047 0 
L 2419 0 
L 2419 1100 
L 313 1100 
L 313 1709 
L 2253 4666 
z
" transform="scale(0.015625)"/>
       </defs>
       <use xlink:href="#DejaVuSans-34"/>
       <use xlink:href="#DejaVuSans-30" x="63.623047"/>
      </g>
     </g>
    </g>
    <g id="xtick_4">
     <g id="line2d_4">
      <g>
       <use xlink:href="#m1920b83259" x="257.99108" y="273.312" style="stroke: #000000; stroke-width: 0.8"/>
      </g>
     </g>
     <g id="text_4">
      <!-- 60 -->
      <g transform="translate(251.62858 287.910437) scale(0.1 -0.1)">
       <defs>
        <path id="DejaVuSans-36" d="M 2113 2584 
Q 1688 2584 1439 2293 
Q 1191 2003 1191 1497 
Q 1191 994 1439 701 
Q 1688 409 2113 409 
Q 2538 409 2786 701 
Q 3034 994 3034 1497 
Q 3034 2003 2786 2293 
Q 2538 2584 2113 2584 
z
M 3366 4563 
L 3366 3988 
Q 3128 4100 2886 4159 
Q 2644 4219 2406 4219 
Q 1781 4219 1451 3797 
Q 1122 3375 1075 2522 
Q 1259 2794 1537 2939 
Q 1816 3084 2150 3084 
Q 2853 3084 3261 2657 
Q 3669 2231 3669 1497 
Q 3669 778 3244 343 
Q 2819 -91 2113 -91 
Q 1303 -91 875 529 
Q 447 1150 447 2328 
Q 447 3434 972 4092 
Q 1497 4750 2381 4750 
Q 2619 4750 2861 4703 
Q 3103 4656 3366 4563 
z
" transform="scale(0.015625)"/>
       </defs>
       <use xlink:href="#DejaVuSans-36"/>
       <use xlink:href="#DejaVuSans-30" x="63.623047"/>
      </g>
     </g>
    </g>
    <g id="xtick_5">
     <g id="line2d_5">
      <g>
       <use xlink:href="#m1920b83259" x="322.921989" y="273.312" style="stroke: #000000; stroke-width: 0.8"/>
      </g>
     </g>
     <g id="text_5">
      <!-- 80 -->
      <g transform="translate(316.559489 287.910437) scale(0.1 -0.1)">
       <defs>
        <path id="DejaVuSans-38" d="M 2034 2216 
Q 1584 2216 1326 1975 
Q 1069 1734 1069 1313 
Q 1069 891 1326 650 
Q 1584 409 2034 409 
Q 2484 409 2743 651 
Q 3003 894 3003 1313 
Q 3003 1734 2745 1975 
Q 2488 2216 2034 2216 
z
M 1403 2484 
Q 997 2584 770 2862 
Q 544 3141 544 3541 
Q 544 4100 942 4425 
Q 1341 4750 2034 4750 
Q 2731 4750 3128 4425 
Q 3525 4100 3525 3541 
Q 3525 3141 3298 2862 
Q 3072 2584 2669 2484 
Q 3125 2378 3379 2068 
Q 3634 1759 3634 1313 
Q 3634 634 3220 271 
Q 2806 -91 2034 -91 
Q 1263 -91 848 271 
Q 434 634 434 1313 
Q 434 1759 690 2068 
Q 947 2378 1403 2484 
z
M 1172 3481 
Q 1172 3119 1398 2916 
Q 1625 2713 2034 2713 
Q 2441 2713 2670 2916 
Q 2900 3119 2900 3481 
Q 2900 3844 2670 4047 
Q 2441 4250 2034 4250 
Q 1625 4250 1398 4047 
Q 1172 3844 1172 3481 
z
" transform="scale(0.015625)"/>
       </defs>
       <use xlink:href="#DejaVuSans-38"/>
       <use xlink:href="#DejaVuSans-30" x="63.623047"/>
      </g>
     </g>
    </g>
    <g id="xtick_6">
     <g id="line2d_6">
      <g>
       <use xlink:href="#m1920b83259" x="387.852898" y="273.312" style="stroke: #000000; stroke-width: 0.8"/>
      </g>
     </g>
     <g id="text_6">
      <!-- 100 -->
      <g transform="translate(378.309148 287.910437) scale(0.1 -0.1)">
       <defs>
        <path id="DejaVuSans-31" d="M 794 531 
L 1825 531 
L 1825 4091 
L 703 3866 
L 703 4441 
L 1819 4666 
L 2450 4666 
L 2450 531 
L 3481 531 
L 3481 0 
L 794 0 
L 794 531 
z
" transform="scale(0.015625)"/>
       </defs>
       <use xlink:href="#DejaVuSans-31"/>
       <use xlink:href="#DejaVuSans-30" x="63.623047"/>
       <use xlink:href="#DejaVuSans-30" x="127.246094"/>
      </g>
     </g>
    </g>
    <g id="text_7">
     <!-- VSharp coverage, % -->
     <g transform="translate(174.735781 301.588562) scale(0.1 -0.1)">
      <defs>
       <path id="DejaVuSans-56" d="M 1831 0 
L 50 4666 
L 709 4666 
L 2188 738 
L 3669 4666 
L 4325 4666 
L 2547 0 
L 1831 0 
z
" transform="scale(0.015625)"/>
       <path id="DejaVuSans-53" d="M 3425 4513 
L 3425 3897 
Q 3066 4069 2747 4153 
Q 2428 4238 2131 4238 
Q 1616 4238 1336 4038 
Q 1056 3838 1056 3469 
Q 1056 3159 1242 3001 
Q 1428 2844 1947 2747 
L 2328 2669 
Q 3034 2534 3370 2195 
Q 3706 1856 3706 1288 
Q 3706 609 3251 259 
Q 2797 -91 1919 -91 
Q 1588 -91 1214 -16 
Q 841 59 441 206 
L 441 856 
Q 825 641 1194 531 
Q 1563 422 1919 422 
Q 2459 422 2753 634 
Q 3047 847 3047 1241 
Q 3047 1584 2836 1778 
Q 2625 1972 2144 2069 
L 1759 2144 
Q 1053 2284 737 2584 
Q 422 2884 422 3419 
Q 422 4038 858 4394 
Q 1294 4750 2059 4750 
Q 2388 4750 2728 4690 
Q 3069 4631 3425 4513 
z
" transform="scale(0.015625)"/>
       <path id="DejaVuSans-68" d="M 3513 2113 
L 3513 0 
L 2938 0 
L 2938 2094 
Q 2938 2591 2744 2837 
Q 2550 3084 2163 3084 
Q 1697 3084 1428 2787 
Q 1159 2491 1159 1978 
L 1159 0 
L 581 0 
L 581 4863 
L 1159 4863 
L 1159 2956 
Q 1366 3272 1645 3428 
Q 1925 3584 2291 3584 
Q 2894 3584 3203 3211 
Q 3513 2838 3513 2113 
z
" transform="scale(0.015625)"/>
       <path id="DejaVuSans-61" d="M 2194 1759 
Q 1497 1759 1228 1600 
Q 959 1441 959 1056 
Q 959 750 1161 570 
Q 1363 391 1709 391 
Q 2188 391 2477 730 
Q 2766 1069 2766 1631 
L 2766 1759 
L 2194 1759 
z
M 3341 1997 
L 3341 0 
L 2766 0 
L 2766 531 
Q 2569 213 2275 61 
Q 1981 -91 1556 -91 
Q 1019 -91 701 211 
Q 384 513 384 1019 
Q 384 1609 779 1909 
Q 1175 2209 1959 2209 
L 2766 2209 
L 2766 2266 
Q 2766 2663 2505 2880 
Q 2244 3097 1772 3097 
Q 1472 3097 1187 3025 
Q 903 2953 641 2809 
L 641 3341 
Q 956 3463 1253 3523 
Q 1550 3584 1831 3584 
Q 2591 3584 2966 3190 
Q 3341 2797 3341 1997 
z
" transform="scale(0.015625)"/>
       <path id="DejaVuSans-72" d="M 2631 2963 
Q 2534 3019 2420 3045 
Q 2306 3072 2169 3072 
Q 1681 3072 1420 2755 
Q 1159 2438 1159 1844 
L 1159 0 
L 581 0 
L 581 3500 
L 1159 3500 
L 1159 2956 
Q 1341 3275 1631 3429 
Q 1922 3584 2338 3584 
Q 2397 3584 2469 3576 
Q 2541 3569 2628 3553 
L 2631 2963 
z
" transform="scale(0.015625)"/>
       <path id="DejaVuSans-70" d="M 1159 525 
L 1159 -1331 
L 581 -1331 
L 581 3500 
L 1159 3500 
L 1159 2969 
Q 1341 3281 1617 3432 
Q 1894 3584 2278 3584 
Q 2916 3584 3314 3078 
Q 3713 2572 3713 1747 
Q 3713 922 3314 415 
Q 2916 -91 2278 -91 
Q 1894 -91 1617 61 
Q 1341 213 1159 525 
z
M 3116 1747 
Q 3116 2381 2855 2742 
Q 2594 3103 2138 3103 
Q 1681 3103 1420 2742 
Q 1159 2381 1159 1747 
Q 1159 1113 1420 752 
Q 1681 391 2138 391 
Q 2594 391 2855 752 
Q 3116 1113 3116 1747 
z
" transform="scale(0.015625)"/>
       <path id="DejaVuSans-20" transform="scale(0.015625)"/>
       <path id="DejaVuSans-63" d="M 3122 3366 
L 3122 2828 
Q 2878 2963 2633 3030 
Q 2388 3097 2138 3097 
Q 1578 3097 1268 2742 
Q 959 2388 959 1747 
Q 959 1106 1268 751 
Q 1578 397 2138 397 
Q 2388 397 2633 464 
Q 2878 531 3122 666 
L 3122 134 
Q 2881 22 2623 -34 
Q 2366 -91 2075 -91 
Q 1284 -91 818 406 
Q 353 903 353 1747 
Q 353 2603 823 3093 
Q 1294 3584 2113 3584 
Q 2378 3584 2631 3529 
Q 2884 3475 3122 3366 
z
" transform="scale(0.015625)"/>
       <path id="DejaVuSans-6f" d="M 1959 3097 
Q 1497 3097 1228 2736 
Q 959 2375 959 1747 
Q 959 1119 1226 758 
Q 1494 397 1959 397 
Q 2419 397 2687 759 
Q 2956 1122 2956 1747 
Q 2956 2369 2687 2733 
Q 2419 3097 1959 3097 
z
M 1959 3584 
Q 2709 3584 3137 3096 
Q 3566 2609 3566 1747 
Q 3566 888 3137 398 
Q 2709 -91 1959 -91 
Q 1206 -91 779 398 
Q 353 888 353 1747 
Q 353 2609 779 3096 
Q 1206 3584 1959 3584 
z
" transform="scale(0.015625)"/>
       <path id="DejaVuSans-76" d="M 191 3500 
L 800 3500 
L 1894 563 
L 2988 3500 
L 3597 3500 
L 2284 0 
L 1503 0 
L 191 3500 
z
" transform="scale(0.015625)"/>
       <path id="DejaVuSans-65" d="M 3597 1894 
L 3597 1613 
L 953 1613 
Q 991 1019 1311 708 
Q 1631 397 2203 397 
Q 2534 397 2845 478 
Q 3156 559 3463 722 
L 3463 178 
Q 3153 47 2828 -22 
Q 2503 -91 2169 -91 
Q 1331 -91 842 396 
Q 353 884 353 1716 
Q 353 2575 817 3079 
Q 1281 3584 2069 3584 
Q 2775 3584 3186 3129 
Q 3597 2675 3597 1894 
z
M 3022 2063 
Q 3016 2534 2758 2815 
Q 2500 3097 2075 3097 
Q 1594 3097 1305 2825 
Q 1016 2553 972 2059 
L 3022 2063 
z
" transform="scale(0.015625)"/>
       <path id="DejaVuSans-67" d="M 2906 1791 
Q 2906 2416 2648 2759 
Q 2391 3103 1925 3103 
Q 1463 3103 1205 2759 
Q 947 2416 947 1791 
Q 947 1169 1205 825 
Q 1463 481 1925 481 
Q 2391 481 2648 825 
Q 2906 1169 2906 1791 
z
M 3481 434 
Q 3481 -459 3084 -895 
Q 2688 -1331 1869 -1331 
Q 1566 -1331 1297 -1286 
Q 1028 -1241 775 -1147 
L 775 -588 
Q 1028 -725 1275 -790 
Q 1522 -856 1778 -856 
Q 2344 -856 2625 -561 
Q 2906 -266 2906 331 
L 2906 616 
Q 2728 306 2450 153 
Q 2172 0 1784 0 
Q 1141 0 747 490 
Q 353 981 353 1791 
Q 353 2603 747 3093 
Q 1141 3584 1784 3584 
Q 2172 3584 2450 3431 
Q 2728 3278 2906 2969 
L 2906 3500 
L 3481 3500 
L 3481 434 
z
" transform="scale(0.015625)"/>
       <path id="DejaVuSans-2c" d="M 750 794 
L 1409 794 
L 1409 256 
L 897 -744 
L 494 -744 
L 750 256 
L 750 794 
z
" transform="scale(0.015625)"/>
       <path id="DejaVuSans-25" d="M 4653 2053 
Q 4381 2053 4226 1822 
Q 4072 1591 4072 1178 
Q 4072 772 4226 539 
Q 4381 306 4653 306 
Q 4919 306 5073 539 
Q 5228 772 5228 1178 
Q 5228 1588 5073 1820 
Q 4919 2053 4653 2053 
z
M 4653 2450 
Q 5147 2450 5437 2106 
Q 5728 1763 5728 1178 
Q 5728 594 5436 251 
Q 5144 -91 4653 -91 
Q 4153 -91 3862 251 
Q 3572 594 3572 1178 
Q 3572 1766 3864 2108 
Q 4156 2450 4653 2450 
z
M 1428 4353 
Q 1159 4353 1004 4120 
Q 850 3888 850 3481 
Q 850 3069 1003 2837 
Q 1156 2606 1428 2606 
Q 1700 2606 1854 2837 
Q 2009 3069 2009 3481 
Q 2009 3884 1853 4118 
Q 1697 4353 1428 4353 
z
M 4250 4750 
L 4750 4750 
L 1831 -91 
L 1331 -91 
L 4250 4750 
z
M 1428 4750 
Q 1922 4750 2215 4408 
Q 2509 4066 2509 3481 
Q 2509 2891 2217 2550 
Q 1925 2209 1428 2209 
Q 931 2209 642 2551 
Q 353 2894 353 3481 
Q 353 4063 643 4406 
Q 934 4750 1428 4750 
z
" transform="scale(0.015625)"/>
      </defs>
      <use xlink:href="#DejaVuSans-56"/>
      <use xlink:href="#DejaVuSans-53" x="68.408203"/>
      <use xlink:href="#DejaVuSans-68" x="131.884766"/>
      <use xlink:href="#DejaVuSans-61" x="195.263672"/>
      <use xlink:href="#DejaVuSans-72" x="256.542969"/>
      <use xlink:href="#DejaVuSans-70" x="297.65625"/>
      <use xlink:href="#DejaVuSans-20" x="361.132812"/>
      <use xlink:href="#DejaVuSans-63" x="392.919922"/>
      <use xlink:href="#DejaVuSans-6f" x="447.900391"/>
      <use xlink:href="#DejaVuSans-76" x="509.082031"/>
      <use xlink:href="#DejaVuSans-65" x="568.261719"/>
      <use xlink:href="#DejaVuSans-72" x="629.785156"/>
      <use xlink:href="#DejaVuSans-61" x="670.898438"/>
      <use xlink:href="#DejaVuSans-67" x="732.177734"/>
      <use xlink:href="#DejaVuSans-65" x="795.654297"/>
      <use xlink:href="#DejaVuSans-2c" x="857.177734"/>
      <use xlink:href="#DejaVuSans-20" x="888.964844"/>
      <use xlink:href="#DejaVuSans-25" x="920.751953"/>
     </g>
     <!--  -->
     <g transform="translate(225.525625 312.786375) scale(0.1 -0.1)"/>
     <!-- coverage, linscale -->
     <g transform="translate(180.302188 323.984187) scale(0.1 -0.1)">
      <defs>
       <path id="DejaVuSans-6c" d="M 603 4863 
L 1178 4863 
L 1178 0 
L 603 0 
L 603 4863 
z
" transform="scale(0.015625)"/>
       <path id="DejaVuSans-69" d="M 603 3500 
L 1178 3500 
L 1178 0 
L 603 0 
L 603 3500 
z
M 603 4863 
L 1178 4863 
L 1178 4134 
L 603 4134 
L 603 4863 
z
" transform="scale(0.015625)"/>
       <path id="DejaVuSans-6e" d="M 3513 2113 
L 3513 0 
L 2938 0 
L 2938 2094 
Q 2938 2591 2744 2837 
Q 2550 3084 2163 3084 
Q 1697 3084 1428 2787 
Q 1159 2491 1159 1978 
L 1159 0 
L 581 0 
L 581 3500 
L 1159 3500 
L 1159 2956 
Q 1366 3272 1645 3428 
Q 1925 3584 2291 3584 
Q 2894 3584 3203 3211 
Q 3513 2838 3513 2113 
z
" transform="scale(0.015625)"/>
       <path id="DejaVuSans-73" d="M 2834 3397 
L 2834 2853 
Q 2591 2978 2328 3040 
Q 2066 3103 1784 3103 
Q 1356 3103 1142 2972 
Q 928 2841 928 2578 
Q 928 2378 1081 2264 
Q 1234 2150 1697 2047 
L 1894 2003 
Q 2506 1872 2764 1633 
Q 3022 1394 3022 966 
Q 3022 478 2636 193 
Q 2250 -91 1575 -91 
Q 1294 -91 989 -36 
Q 684 19 347 128 
L 347 722 
Q 666 556 975 473 
Q 1284 391 1588 391 
Q 1994 391 2212 530 
Q 2431 669 2431 922 
Q 2431 1156 2273 1281 
Q 2116 1406 1581 1522 
L 1381 1569 
Q 847 1681 609 1914 
Q 372 2147 372 2553 
Q 372 3047 722 3315 
Q 1072 3584 1716 3584 
Q 2034 3584 2315 3537 
Q 2597 3491 2834 3397 
z
" transform="scale(0.015625)"/>
      </defs>
      <use xlink:href="#DejaVuSans-63"/>
      <use xlink:href="#DejaVuSans-6f" x="54.980469"/>
      <use xlink:href="#DejaVuSans-76" x="116.162109"/>
      <use xlink:href="#DejaVuSans-65" x="175.341797"/>
      <use xlink:href="#DejaVuSans-72" x="236.865234"/>
      <use xlink:href="#DejaVuSans-61" x="277.978516"/>
      <use xlink:href="#DejaVuSans-67" x="339.257812"/>
      <use xlink:href="#DejaVuSans-65" x="402.734375"/>
      <use xlink:href="#DejaVuSans-2c" x="464.257812"/>
      <use xlink:href="#DejaVuSans-20" x="496.044922"/>
      <use xlink:href="#DejaVuSans-6c" x="527.832031"/>
      <use xlink:href="#DejaVuSans-69" x="555.615234"/>
      <use xlink:href="#DejaVuSans-6e" x="583.398438"/>
      <use xlink:href="#DejaVuSans-73" x="646.777344"/>
      <use xlink:href="#DejaVuSans-63" x="698.876953"/>
      <use xlink:href="#DejaVuSans-61" x="753.857422"/>
      <use xlink:href="#DejaVuSans-6c" x="815.136719"/>
      <use xlink:href="#DejaVuSans-65" x="842.919922"/>
     </g>
     <!-- AI (orange) won: 7, VSharp (blue) won: 9, eq (black): 113 -->
     <g transform="translate(82.276406 335.182) scale(0.1 -0.1)">
      <defs>
       <path id="DejaVuSans-41" d="M 2188 4044 
L 1331 1722 
L 3047 1722 
L 2188 4044 
z
M 1831 4666 
L 2547 4666 
L 4325 0 
L 3669 0 
L 3244 1197 
L 1141 1197 
L 716 0 
L 50 0 
L 1831 4666 
z
" transform="scale(0.015625)"/>
       <path id="DejaVuSans-49" d="M 628 4666 
L 1259 4666 
L 1259 0 
L 628 0 
L 628 4666 
z
" transform="scale(0.015625)"/>
       <path id="DejaVuSans-28" d="M 1984 4856 
Q 1566 4138 1362 3434 
Q 1159 2731 1159 2009 
Q 1159 1288 1364 580 
Q 1569 -128 1984 -844 
L 1484 -844 
Q 1016 -109 783 600 
Q 550 1309 550 2009 
Q 550 2706 781 3412 
Q 1013 4119 1484 4856 
L 1984 4856 
z
" transform="scale(0.015625)"/>
       <path id="DejaVuSans-29" d="M 513 4856 
L 1013 4856 
Q 1481 4119 1714 3412 
Q 1947 2706 1947 2009 
Q 1947 1309 1714 600 
Q 1481 -109 1013 -844 
L 513 -844 
Q 928 -128 1133 580 
Q 1338 1288 1338 2009 
Q 1338 2731 1133 3434 
Q 928 4138 513 4856 
z
" transform="scale(0.015625)"/>
       <path id="DejaVuSans-77" d="M 269 3500 
L 844 3500 
L 1563 769 
L 2278 3500 
L 2956 3500 
L 3675 769 
L 4391 3500 
L 4966 3500 
L 4050 0 
L 3372 0 
L 2619 2869 
L 1863 0 
L 1184 0 
L 269 3500 
z
" transform="scale(0.015625)"/>
       <path id="DejaVuSans-3a" d="M 750 794 
L 1409 794 
L 1409 0 
L 750 0 
L 750 794 
z
M 750 3309 
L 1409 3309 
L 1409 2516 
L 750 2516 
L 750 3309 
z
" transform="scale(0.015625)"/>
       <path id="DejaVuSans-37" d="M 525 4666 
L 3525 4666 
L 3525 4397 
L 1831 0 
L 1172 0 
L 2766 4134 
L 525 4134 
L 525 4666 
z
" transform="scale(0.015625)"/>
       <path id="DejaVuSans-62" d="M 3116 1747 
Q 3116 2381 2855 2742 
Q 2594 3103 2138 3103 
Q 1681 3103 1420 2742 
Q 1159 2381 1159 1747 
Q 1159 1113 1420 752 
Q 1681 391 2138 391 
Q 2594 391 2855 752 
Q 3116 1113 3116 1747 
z
M 1159 2969 
Q 1341 3281 1617 3432 
Q 1894 3584 2278 3584 
Q 2916 3584 3314 3078 
Q 3713 2572 3713 1747 
Q 3713 922 3314 415 
Q 2916 -91 2278 -91 
Q 1894 -91 1617 61 
Q 1341 213 1159 525 
L 1159 0 
L 581 0 
L 581 4863 
L 1159 4863 
L 1159 2969 
z
" transform="scale(0.015625)"/>
       <path id="DejaVuSans-75" d="M 544 1381 
L 544 3500 
L 1119 3500 
L 1119 1403 
Q 1119 906 1312 657 
Q 1506 409 1894 409 
Q 2359 409 2629 706 
Q 2900 1003 2900 1516 
L 2900 3500 
L 3475 3500 
L 3475 0 
L 2900 0 
L 2900 538 
Q 2691 219 2414 64 
Q 2138 -91 1772 -91 
Q 1169 -91 856 284 
Q 544 659 544 1381 
z
M 1991 3584 
L 1991 3584 
z
" transform="scale(0.015625)"/>
       <path id="DejaVuSans-39" d="M 703 97 
L 703 672 
Q 941 559 1184 500 
Q 1428 441 1663 441 
Q 2288 441 2617 861 
Q 2947 1281 2994 2138 
Q 2813 1869 2534 1725 
Q 2256 1581 1919 1581 
Q 1219 1581 811 2004 
Q 403 2428 403 3163 
Q 403 3881 828 4315 
Q 1253 4750 1959 4750 
Q 2769 4750 3195 4129 
Q 3622 3509 3622 2328 
Q 3622 1225 3098 567 
Q 2575 -91 1691 -91 
Q 1453 -91 1209 -44 
Q 966 3 703 97 
z
M 1959 2075 
Q 2384 2075 2632 2365 
Q 2881 2656 2881 3163 
Q 2881 3666 2632 3958 
Q 2384 4250 1959 4250 
Q 1534 4250 1286 3958 
Q 1038 3666 1038 3163 
Q 1038 2656 1286 2365 
Q 1534 2075 1959 2075 
z
" transform="scale(0.015625)"/>
       <path id="DejaVuSans-71" d="M 947 1747 
Q 947 1113 1208 752 
Q 1469 391 1925 391 
Q 2381 391 2643 752 
Q 2906 1113 2906 1747 
Q 2906 2381 2643 2742 
Q 2381 3103 1925 3103 
Q 1469 3103 1208 2742 
Q 947 2381 947 1747 
z
M 2906 525 
Q 2725 213 2448 61 
Q 2172 -91 1784 -91 
Q 1150 -91 751 415 
Q 353 922 353 1747 
Q 353 2572 751 3078 
Q 1150 3584 1784 3584 
Q 2172 3584 2448 3432 
Q 2725 3281 2906 2969 
L 2906 3500 
L 3481 3500 
L 3481 -1331 
L 2906 -1331 
L 2906 525 
z
" transform="scale(0.015625)"/>
       <path id="DejaVuSans-6b" d="M 581 4863 
L 1159 4863 
L 1159 1991 
L 2875 3500 
L 3609 3500 
L 1753 1863 
L 3688 0 
L 2938 0 
L 1159 1709 
L 1159 0 
L 581 0 
L 581 4863 
z
" transform="scale(0.015625)"/>
       <path id="DejaVuSans-33" d="M 2597 2516 
Q 3050 2419 3304 2112 
Q 3559 1806 3559 1356 
Q 3559 666 3084 287 
Q 2609 -91 1734 -91 
Q 1441 -91 1130 -33 
Q 819 25 488 141 
L 488 750 
Q 750 597 1062 519 
Q 1375 441 1716 441 
Q 2309 441 2620 675 
Q 2931 909 2931 1356 
Q 2931 1769 2642 2001 
Q 2353 2234 1838 2234 
L 1294 2234 
L 1294 2753 
L 1863 2753 
Q 2328 2753 2575 2939 
Q 2822 3125 2822 3475 
Q 2822 3834 2567 4026 
Q 2313 4219 1838 4219 
Q 1578 4219 1281 4162 
Q 984 4106 628 3988 
L 628 4550 
Q 988 4650 1302 4700 
Q 1616 4750 1894 4750 
Q 2613 4750 3031 4423 
Q 3450 4097 3450 3541 
Q 3450 3153 3228 2886 
Q 3006 2619 2597 2516 
z
" transform="scale(0.015625)"/>
      </defs>
      <use xlink:href="#DejaVuSans-41"/>
      <use xlink:href="#DejaVuSans-49" x="68.408203"/>
      <use xlink:href="#DejaVuSans-20" x="97.900391"/>
      <use xlink:href="#DejaVuSans-28" x="129.6875"/>
      <use xlink:href="#DejaVuSans-6f" x="168.701172"/>
      <use xlink:href="#DejaVuSans-72" x="229.882812"/>
      <use xlink:href="#DejaVuSans-61" x="270.996094"/>
      <use xlink:href="#DejaVuSans-6e" x="332.275391"/>
      <use xlink:href="#DejaVuSans-67" x="395.654297"/>
      <use xlink:href="#DejaVuSans-65" x="459.130859"/>
      <use xlink:href="#DejaVuSans-29" x="520.654297"/>
      <use xlink:href="#DejaVuSans-20" x="559.667969"/>
      <use xlink:href="#DejaVuSans-77" x="591.455078"/>
      <use xlink:href="#DejaVuSans-6f" x="673.242188"/>
      <use xlink:href="#DejaVuSans-6e" x="734.423828"/>
      <use xlink:href="#DejaVuSans-3a" x="797.802734"/>
      <use xlink:href="#DejaVuSans-20" x="831.494141"/>
      <use xlink:href="#DejaVuSans-37" x="863.28125"/>
      <use xlink:href="#DejaVuSans-2c" x="926.904297"/>
      <use xlink:href="#DejaVuSans-20" x="958.691406"/>
      <use xlink:href="#DejaVuSans-56" x="990.478516"/>
      <use xlink:href="#DejaVuSans-53" x="1058.886719"/>
      <use xlink:href="#DejaVuSans-68" x="1122.363281"/>
      <use xlink:href="#DejaVuSans-61" x="1185.742188"/>
      <use xlink:href="#DejaVuSans-72" x="1247.021484"/>
      <use xlink:href="#DejaVuSans-70" x="1288.134766"/>
      <use xlink:href="#DejaVuSans-20" x="1351.611328"/>
      <use xlink:href="#DejaVuSans-28" x="1383.398438"/>
      <use xlink:href="#DejaVuSans-62" x="1422.412109"/>
      <use xlink:href="#DejaVuSans-6c" x="1485.888672"/>
      <use xlink:href="#DejaVuSans-75" x="1513.671875"/>
      <use xlink:href="#DejaVuSans-65" x="1577.050781"/>
      <use xlink:href="#DejaVuSans-29" x="1638.574219"/>
      <use xlink:href="#DejaVuSans-20" x="1677.587891"/>
      <use xlink:href="#DejaVuSans-77" x="1709.375"/>
      <use xlink:href="#DejaVuSans-6f" x="1791.162109"/>
      <use xlink:href="#DejaVuSans-6e" x="1852.34375"/>
      <use xlink:href="#DejaVuSans-3a" x="1915.722656"/>
      <use xlink:href="#DejaVuSans-20" x="1949.414062"/>
      <use xlink:href="#DejaVuSans-39" x="1981.201172"/>
      <use xlink:href="#DejaVuSans-2c" x="2044.824219"/>
      <use xlink:href="#DejaVuSans-20" x="2076.611328"/>
      <use xlink:href="#DejaVuSans-65" x="2108.398438"/>
      <use xlink:href="#DejaVuSans-71" x="2169.921875"/>
      <use xlink:href="#DejaVuSans-20" x="2233.398438"/>
      <use xlink:href="#DejaVuSans-28" x="2265.185547"/>
      <use xlink:href="#DejaVuSans-62" x="2304.199219"/>
      <use xlink:href="#DejaVuSans-6c" x="2367.675781"/>
      <use xlink:href="#DejaVuSans-61" x="2395.458984"/>
      <use xlink:href="#DejaVuSans-63" x="2456.738281"/>
      <use xlink:href="#DejaVuSans-6b" x="2511.71875"/>
      <use xlink:href="#DejaVuSans-29" x="2569.628906"/>
      <use xlink:href="#DejaVuSans-3a" x="2608.642578"/>
      <use xlink:href="#DejaVuSans-20" x="2642.333984"/>
      <use xlink:href="#DejaVuSans-31" x="2674.121094"/>
      <use xlink:href="#DejaVuSans-31" x="2737.744141"/>
      <use xlink:href="#DejaVuSans-33" x="2801.367188"/>
     </g>
    </g>
   </g>
   <g id="matplotlib.axis_2">
    <g id="ytick_1">
     <g id="line2d_7">
      <defs>
       <path id="m1d29c277e5" d="M 0 0 
L -3.5 0 
" style="stroke: #000000; stroke-width: 0.8"/>
      </defs>
      <g>
       <use xlink:href="#m1d29c277e5" x="46.965625" y="261.216" style="stroke: #000000; stroke-width: 0.8"/>
      </g>
     </g>
     <g id="text_8">
      <!-- 0 -->
      <g transform="translate(33.603125 265.015219) scale(0.1 -0.1)">
       <use xlink:href="#DejaVuSans-30"/>
      </g>
     </g>
    </g>
    <g id="ytick_2">
     <g id="line2d_8">
      <g>
       <use xlink:href="#m1d29c277e5" x="46.965625" y="212.832" style="stroke: #000000; stroke-width: 0.8"/>
      </g>
     </g>
     <g id="text_9">
      <!-- 20 -->
      <g transform="translate(27.240625 216.631219) scale(0.1 -0.1)">
       <use xlink:href="#DejaVuSans-32"/>
       <use xlink:href="#DejaVuSans-30" x="63.623047"/>
      </g>
     </g>
    </g>
    <g id="ytick_3">
     <g id="line2d_9">
      <g>
       <use xlink:href="#m1d29c277e5" x="46.965625" y="164.448" style="stroke: #000000; stroke-width: 0.8"/>
      </g>
     </g>
     <g id="text_10">
      <!-- 40 -->
      <g transform="translate(27.240625 168.247219) scale(0.1 -0.1)">
       <use xlink:href="#DejaVuSans-34"/>
       <use xlink:href="#DejaVuSans-30" x="63.623047"/>
      </g>
     </g>
    </g>
    <g id="ytick_4">
     <g id="line2d_10">
      <g>
       <use xlink:href="#m1d29c277e5" x="46.965625" y="116.064" style="stroke: #000000; stroke-width: 0.8"/>
      </g>
     </g>
     <g id="text_11">
      <!-- 60 -->
      <g transform="translate(27.240625 119.863219) scale(0.1 -0.1)">
       <use xlink:href="#DejaVuSans-36"/>
       <use xlink:href="#DejaVuSans-30" x="63.623047"/>
      </g>
     </g>
    </g>
    <g id="ytick_5">
     <g id="line2d_11">
      <g>
       <use xlink:href="#m1d29c277e5" x="46.965625" y="67.68" style="stroke: #000000; stroke-width: 0.8"/>
      </g>
     </g>
     <g id="text_12">
      <!-- 80 -->
      <g transform="translate(27.240625 71.479219) scale(0.1 -0.1)">
       <use xlink:href="#DejaVuSans-38"/>
       <use xlink:href="#DejaVuSans-30" x="63.623047"/>
      </g>
     </g>
    </g>
    <g id="ytick_6">
     <g id="line2d_12">
      <g>
       <use xlink:href="#m1d29c277e5" x="46.965625" y="19.296" style="stroke: #000000; stroke-width: 0.8"/>
      </g>
     </g>
     <g id="text_13">
      <!-- 100 -->
      <g transform="translate(20.878125 23.095219) scale(0.1 -0.1)">
       <use xlink:href="#DejaVuSans-31"/>
       <use xlink:href="#DejaVuSans-30" x="63.623047"/>
       <use xlink:href="#DejaVuSans-30" x="127.246094"/>
      </g>
     </g>
    </g>
    <g id="text_14">
     <!-- AI coverage, % -->
     <g transform="translate(14.798438 177.884125) rotate(-90) scale(0.1 -0.1)">
      <use xlink:href="#DejaVuSans-41"/>
      <use xlink:href="#DejaVuSans-49" x="68.408203"/>
      <use xlink:href="#DejaVuSans-20" x="97.900391"/>
      <use xlink:href="#DejaVuSans-63" x="129.6875"/>
      <use xlink:href="#DejaVuSans-6f" x="184.667969"/>
      <use xlink:href="#DejaVuSans-76" x="245.849609"/>
      <use xlink:href="#DejaVuSans-65" x="305.029297"/>
      <use xlink:href="#DejaVuSans-72" x="366.552734"/>
      <use xlink:href="#DejaVuSans-61" x="407.666016"/>
      <use xlink:href="#DejaVuSans-67" x="468.945312"/>
      <use xlink:href="#DejaVuSans-65" x="532.421875"/>
      <use xlink:href="#DejaVuSans-2c" x="593.945312"/>
      <use xlink:href="#DejaVuSans-20" x="625.732422"/>
      <use xlink:href="#DejaVuSans-25" x="657.519531"/>
     </g>
    </g>
   </g>
   <g id="line2d_13">
    <path d="M 46.965625 273.312 
L 404.085625 7.2 
" clip-path="url(#pbf34bbe685)" style="fill: none; stroke: #1f77b4; stroke-width: 1.5; stroke-linecap: square"/>
   </g>
   <g id="patch_3">
    <path d="M 46.965625 273.312 
L 46.965625 7.2 
" style="fill: none; stroke: #000000; stroke-width: 0.8; stroke-linejoin: miter; stroke-linecap: square"/>
   </g>
   <g id="patch_4">
    <path d="M 404.085625 273.312 
L 404.085625 7.2 
" style="fill: none; stroke: #000000; stroke-width: 0.8; stroke-linejoin: miter; stroke-linecap: square"/>
   </g>
   <g id="patch_5">
    <path d="M 46.965625 273.312 
L 404.085625 273.312 
" style="fill: none; stroke: #000000; stroke-width: 0.8; stroke-linejoin: miter; stroke-linecap: square"/>
   </g>
   <g id="patch_6">
    <path d="M 46.965625 7.2 
L 404.085625 7.2 
" style="fill: none; stroke: #000000; stroke-width: 0.8; stroke-linejoin: miter; stroke-linecap: square"/>
   </g>
  </g>
 </g>
 <defs>
  <clipPath id="pbf34bbe685">
   <rect x="46.965625" y="7.2" width="357.12" height="266.112"/>
  </clipPath>
 </defs>
</svg>
