<svg xmlns="http://www.w3.org/2000/svg" xmlns:xlink="http://www.w3.org/1999/xlink" contentStyleType="text/css" height="473px" preserveAspectRatio="none" style="width:405px;height:473px;background:#FFFFFF;" version="1.1" viewBox="0 0 405 473" width="405px" zoomAndPan="magnify"><defs/><g><rect fill="#ADD8E6" height="461.9922" style="stroke:#181818;stroke-width:0.5;" width="75.1323" x="55" y="6"/><text fill="#000000" font-family="sans-serif" font-size="13" font-weight="bold" lengthAdjust="spacing" textLength="69.1323" x="58" y="18.0669">play_map</text><rect fill="#DDDDDD" height="461.9922" style="stroke:#181818;stroke-width:0.5;" width="97.6348" x="192.1323" y="6"/><text fill="#000000" font-family="sans-serif" font-size="13" font-weight="bold" lengthAdjust="spacing" textLength="91.6348" x="195.1323" y="18.0669">game server</text><rect fill="none" height="182.4688" style="stroke:#000000;stroke-width:1.5;" width="309.3315" x="9" y="183.9609"/><line style="stroke:#181818;stroke-width:0.5;stroke-dasharray:5.0,5.0;" x1="92.301" x2="92.301" y1="56.4297" y2="263.3594"/><line style="stroke:#A80036;stroke-width:1.0;stroke-dasharray:1.0,4.0;" x1="92.301" x2="92.301" y1="263.3594" y2="304.1641"/><line style="stroke:#181818;stroke-width:0.5;stroke-dasharray:5.0,5.0;" x1="92.301" x2="92.301" y1="304.1641" y2="433.6953"/><line style="stroke:#181818;stroke-width:0.5;stroke-dasharray:5.0,5.0;" x1="239.9946" x2="239.9946" y1="56.4297" y2="263.3594"/><line style="stroke:#A80036;stroke-width:1.0;stroke-dasharray:1.0,4.0;" x1="239.9946" x2="239.9946" y1="263.3594" y2="304.1641"/><line style="stroke:#181818;stroke-width:0.5;stroke-dasharray:5.0,5.0;" x1="239.9946" x2="239.9946" y1="304.1641" y2="433.6953"/><rect fill="#E2E2F0" height="30.2969" rx="2.5" ry="2.5" style="stroke:#181818;stroke-width:0.5;" width="54.5303" x="65.301" y="25.1328"/><text fill="#000000" font-family="sans-serif" font-size="14" lengthAdjust="spacing" textLength="40.5303" x="72.301" y="45.1279">Client</text><rect fill="#E2E2F0" height="30.2969" rx="2.5" ry="2.5" style="stroke:#181818;stroke-width:0.5;" width="54.5303" x="65.301" y="432.6953"/><text fill="#000000" font-family="sans-serif" font-size="14" lengthAdjust="spacing" textLength="40.5303" x="72.301" y="452.6904">Client</text><rect fill="#E2E2F0" height="30.2969" rx="2.5" ry="2.5" style="stroke:#181818;stroke-width:0.5;" width="59.9102" x="210.9946" y="25.1328"/><text fill="#000000" font-family="sans-serif" font-size="14" lengthAdjust="spacing" textLength="45.9102" x="217.9946" y="45.1279">Server</text><rect fill="#E2E2F0" height="30.2969" rx="2.5" ry="2.5" style="stroke:#181818;stroke-width:0.5;" width="59.9102" x="210.9946" y="432.6953"/><text fill="#000000" font-family="sans-serif" font-size="14" lengthAdjust="spacing" textLength="45.9102" x="217.9946" y="452.6904">Server</text><polygon fill="#181818" points="228.9497,83.5625,238.9497,87.5625,228.9497,91.5625,232.9497,87.5625" style="stroke:#181818;stroke-width:1.0;"/><line style="stroke:#181818;stroke-width:1.0;" x1="92.5662" x2="234.9497" y1="87.5625" y2="87.5625"/><text fill="#000000" font-family="sans-serif" font-size="13" lengthAdjust="spacing" textLength="66.1362" x="99.5662" y="82.4966">GameMap</text><polygon fill="#FEFFDD" points="198,100.5625,283,100.5625,293,111.5625,283,123.5625,198,123.5625,188,111.5625,198,100.5625" style="stroke:#181818;stroke-width:0.5;"/><text fill="#000000" font-family="sans-serif" font-size="13" lengthAdjust="spacing" textLength="81.4341" x="200" y="116.6294">start game()</text><polygon fill="#FEFFDD" points="164,133.6953,316,133.6953,326,152.6953,316,171.6953,164,171.6953,154,152.6953,164,133.6953" style="stroke:#181818;stroke-width:0.5;"/><text fill="#000000" font-family="sans-serif" font-size="13" lengthAdjust="spacing" textLength="143.3872" x="166" y="149.7622">do StepsToStart steps</text><text fill="#000000" font-family="sans-serif" font-size="13" lengthAdjust="spacing" textLength="148.5415" x="166" y="164.895">with default searcher()</text><path d="M9,183.9609 L85.624,183.9609 L85.624,191.0938 L75.624,201.0938 L9,201.0938 L9,183.9609 " fill="#EEEEEE" style="stroke:#000000;stroke-width:1.5;"/><rect fill="none" height="182.4688" style="stroke:#000000;stroke-width:1.5;" width="309.3315" x="9" y="183.9609"/><text fill="#000000" font-family="sans-serif" font-size="13" font-weight="bold" lengthAdjust="spacing" textLength="31.624" x="24" y="197.0278">loop</text><text fill="#000000" font-family="sans-serif" font-size="11" font-weight="bold" lengthAdjust="spacing" textLength="124.9316" x="100.624" y="196.1714">[StepsToPlay times]</text><polygon fill="#181818" points="103.5662,218.2266,93.5662,222.2266,103.5662,226.2266,99.5662,222.2266" style="stroke:#181818;stroke-width:1.0;"/><line style="stroke:#181818;stroke-width:1.0;stroke-dasharray:2.0,2.0;" x1="97.5662" x2="239.9497" y1="222.2266" y2="222.2266"/><text fill="#000000" font-family="sans-serif" font-size="13" lengthAdjust="spacing" textLength="34.4106" x="109.5662" y="217.1606">State</text><polygon fill="#FEFFDD" points="29,235.2266,154,235.2266,164,246.2266,154,258.2266,29,258.2266,19,246.2266,29,235.2266" style="stroke:#181818;stroke-width:0.5;"/><text fill="#000000" font-family="sans-serif" font-size="13" lengthAdjust="spacing" textLength="121.2593" x="31" y="251.2935">predict next step()</text><text fill="#000000" font-family="sans-serif" font-size="11" lengthAdjust="spacing" textLength="3.4966" x="165.0096" y="287.5698">&#160;</text><polygon fill="#FEFFDD" points="183,309.1641,298,309.1641,308,320.1641,298,332.1641,183,332.1641,173,320.1641,183,309.1641" style="stroke:#181818;stroke-width:0.5;"/><text fill="#000000" font-family="sans-serif" font-size="13" lengthAdjust="spacing" textLength="111.3315" x="185" y="325.231">apply next step()</text><polygon fill="#181818" points="228.9497,354.4297,238.9497,358.4297,228.9497,362.4297,232.9497,358.4297" style="stroke:#181818;stroke-width:1.0;"/><line style="stroke:#181818;stroke-width:1.0;stroke-dasharray:2.0,2.0;" x1="92.5662" x2="234.9497" y1="358.4297" y2="358.4297"/><text fill="#000000" font-family="sans-serif" font-size="13" lengthAdjust="spacing" textLength="29.5991" x="99.5662" y="353.3638">Step</text><polygon fill="#181818" points="103.5662,401.1289,93.5662,405.1289,103.5662,409.1289,99.5662,405.1289" style="stroke:#181818;stroke-width:1.0;"/><line style="stroke:#181818;stroke-width:1.0;stroke-dasharray:2.0,2.0;" x1="97.5662" x2="239.9497" y1="405.1289" y2="405.1289"/><text fill="#000000" font-family="sans-serif" font-size="13" lengthAdjust="spacing" textLength="69.9702" x="109.5662" y="400.063">GameOver</text><path d="M245,378.4297 L245,418.4297 L398,418.4297 L398,388.4297 L388,378.4297 L245,378.4297 " fill="#FEFFDD" style="stroke:#181818;stroke-width:0.5;"/><path d="M388,378.4297 L388,388.4297 L398,388.4297 L388,378.4297 " fill="#FEFFDD" style="stroke:#181818;stroke-width:0.5;"/><text fill="#000000" font-family="sans-serif" font-size="13" lengthAdjust="spacing" textLength="132.7231" x="251" y="395.4966">steps are exhausted</text><text fill="#000000" font-family="sans-serif" font-size="13" lengthAdjust="spacing" textLength="117.3491" x="251" y="410.6294">or map is covered</text><!--SRC=[RL71JiCm3BtxAxnoWKCd96uJuZ0EN41CAdTa6g-DI9CeoQ1Zsh_Zj2jQDI95Yfrdl-VdXG_KT8I9tG-ci6E8dzfw2jJXslKRKahR1kzkuSFrM7X3-_UEV85Npxffqzf8XQ2JhhKdc_3HQBPf13VKCKOENnoA6QWQSZ1YiNmu9LRu91KlvF7oG6jTOdG2-qF793qnirpVNFw3SbWbzl7DLGCmvW3XMwSM5MzfPoJ75EgMWpHWgt1e0iOvFvLkP61CkkC8Xu7lU6gFfUWU9rW9cAJkJCBquGChNIUqt8y2X6YvNABS_oOYxyr-1Zw8h2DEJfrPbVLbpR0ut-2MJ6IOdBqlovcrhvaB1jgGjmUZ9HGOkMzf9w425r0MZ3fYdRL99Zip69CVijbV]--></g></svg>